<svg id="Capa_1" data-name="Capa 1" xmlns="http://www.w3.org/2000/svg" viewBox="0 0 150 150"><defs><style>.cls-1{fill:gray;}.cls-2{fill:#0056b3;}</style></defs><title>iconos</title><g id="KPEqlF.tif"><path class="cls-1" d="M99,98.14V92.61Q99,60.3,99,28c0-7.7-3.46-11.14-11.21-11.14q-31.91,0-63.83,0c-7.4,0-11,3.61-11,11q0,41.09,0,82.18c0,7.28,3.72,11,11.09,11.06,7.71,0.08,15.43-.11,23.13.13a7.47,7.47,0,0,1,4.37,2.34c3.16,3.15,6.06,6.55,9.21,10-16.91,0-33.73.29-50.54-.16-5.69-.15-9.47-5.72-9.49-11.93-0.05-18.75,0-37.5,0-56.25q0-23.94,0-47.87C0.7,8.62,5.17,4.21,14,4.2q41.89,0,83.77,0c8.55,0,13.79,5,13.82,13.53,0.09,21,0,42,0,63a6.24,6.24,0,0,1-1.11,3.64C107,88.76,103.35,93,99,98.14Z"/><path class="cls-2" d="M94.68,119.37c11.6-13.59,22.91-27,34.43-40.19a16,16,0,0,1,6.69-4.61,10.19,10.19,0,0,1,11.75,4.56c2.68,4.22,2.39,9.07-1.16,13.27-9.94,11.78-20,23.48-30,35.2q-5.82,6.82-11.66,13.63c-4.65,5.39-10.82,6.13-16.19,1.64q-12.84-10.74-25.41-21.8c-5-4.37-5.49-11-1.47-15.61s10.53-5.19,15.67-.94C83.07,109.26,88.64,114.19,94.68,119.37Z"/><path class="cls-1" d="M56.73,44.9c-8.91,0-17.82,0-26.73,0-4.58,0-7.31-2.23-7.48-6s2.78-6.63,7.34-6.65q26.73-.11,53.46,0c4.51,0,7.22,2.56,7.24,6.28,0,3.88-2.82,6.3-7.5,6.31C74.28,44.92,65.5,44.9,56.73,44.9Z"/><path class="cls-1" d="M56.28,65.52c-8.78,0-17.55,0-26.33,0-4.56,0-7.3-2.3-7.44-6s2.69-6.54,7.39-6.56q26.73-.1,53.45,0c4.5,0,7.17,2.53,7.19,6.3S87.78,65.5,83,65.51C74.1,65.54,65.19,65.52,56.28,65.52Z"/><path class="cls-1" d="M56.68,73.64c8.91,0,17.81,0,26.72,0,4.6,0,7.2,2.3,7.14,6.15-0.05,3.69-2.57,5.92-7,5.93q-26.92.05-53.84,0c-4.53,0-7.27-2.42-7.21-6.15s2.82-5.92,7.45-5.93C38.86,73.62,47.77,73.64,56.68,73.64Z"/><path class="cls-1" d="M58.37,93.34c-2.68,3.48-5.33,7-8.1,10.46a3.88,3.88,0,0,1-2.38,1.55c-6.63.12-13.27,0.24-19.89,0-3.32-.14-5.33-2.51-5.41-5.82s1.73-6,5.08-6.06C38.07,93.18,48.49,93.34,58.37,93.34Z"/><path class="cls-1" d="M89.92,101.37l-9-7.56C87.42,92.13,91.16,95.07,89.92,101.37Z"/></g></svg>